<svg viewBox="0 0 1409.2 328.32" xmlns="http://www.w3.org/2000/svg" xmlns:xlink="http://www.w3.org/1999/xlink"><clipPath id="a"><path d="m243.39 105.93h44.59v35.97h-44.59z"/></clipPath><clipPath id="b"><path d="m191.38 105.93h44.58v35.97h-44.58z"/></clipPath><g clip-path="url(#a)" opacity=".4"><path d="m287.97 105.93-8.62 35.97h-35.96l8.6-35.97z" fill="#a1a3a6"/></g><g clip-path="url(#b)" opacity=".75"><path d="m235.96 105.93-8.62 35.97h-35.96l8.61-35.97z" fill="#a1a3a6"/></g><g fill="#a1a3a6"><path d="m534.41 201c7.5 5.6 24.64 15.08 48.49 15.08 19.64 0 39.64-10.88 45.21-35.43 4-17.55-4.43-25.25-23.48-37.18l-19.92-12.63c-21.18-13.33-32.6-32.62-25.43-64.18 9.94-43.86 51.25-66.66 92.29-66.66 26 0 42.68 6.67 49.22 8.77l-10.61 37.53c-9.93-4.2-22.88-10.52-43.57-10.52-22.45 0-36.73 11.92-40.56 28.76-4.12 18.24 6.55 25.25 18.49 33l23 14.73c25.09 16.14 35.28 31.57 27.48 65.94-11.3 49.81-52.15 73.66-98.79 73.66-24.56 0-42.7-3.51-53.31-10.87z"/><path d="m828.2 0c50.85 0 88.91 37.88 68.94 125.92s-75.23 125.92-126.08 125.92-88.91-37.84-68.93-125.92 75.2-125.92 126.07-125.92zm-49.34 217.47c28.4 0 56.7-24.2 72-91.55s-2-91.54-30.44-91.54-56.7 24.2-72 91.54 2.03 91.55 30.44 91.55z"/><path d="m891.32 248.33h44.89l24.18-106.62h-44.89z"/><path d="m1035.82 141.71 8.11-35.78h-75.41l-8.13 35.78z"/><path d="m946.87 3.51-23.25 102.42h44.9l15.12-66.64h133.63l-47.43 209.04h44.89l47.43-209.04h54.37l8.12-35.78z"/><path d="m183.95 105.93-8.61 35.97h-35.97l8.62-35.97z"/><path d="m131.94 105.93-8.61 35.97h-123.33l8.61-35.97z"/></g><path d="m298.78 201c7.49 5.6 24.64 15.08 48.48 15.08 19.64 0 39.64-10.88 45.23-35.43 4-17.55-4.45-25.25-23.49-37.18l-19.94-12.63c-21.17-13.33-32.58-32.62-25.42-64.18 9.95-43.86 51.25-66.66 92.29-66.66 26 0 42.67 6.67 49.22 8.77l-10.62 37.53c-9.92-4.2-22.87-10.52-43.57-10.52-22.44 0-36.72 11.92-40.54 28.76-4.14 18.24 6.55 25.25 18.47 33l23 14.73c25.11 16.14 35.28 31.57 27.47 65.94-11.36 49.79-52.17 73.63-98.8 73.63-24.56 0-42.71-3.51-53.31-10.87z" fill="#005daa"/><path d="m480.28 105.93-8.12 35.78h44.9l8.1-35.78z" fill="#005daa"/><path d="m168.3 159.69h-48.25c-1.83 54.2 26.45 92.15 88.55 92.15a194.84 194.84 0 0 0 39.73-4l11.4-40.25c-10.22 4.33-22.72 7.1-38.49 7.1-29.69-.03-52.35-16.16-52.94-55zm96.05-159.69c-59.4 0-104 36-127.23 88h48.52c18.36-35.83 47.25-50.81 75.86-50.81 22.33 0 34.66 8.38 42.76 13l11.4-40.33a136.27 136.27 0 0 0 -51.31-9.86z" fill="#005daa"/><path d="m1388.19 327.86h5.88l6.84-27.41h7.09l1.16-4.69h-20.16l-1.17 4.69h7.17zm-36.36 0h5.32l6.24-25h .09l4.38 25h7l8-32.1h-5.32l-6.25 25.24h-.09l-4.39-25.21h-7zm-24.76 0h17.34l1.16-4.69h-11.44l2.35-9.48h10.4l1.17-4.69h-10.39l2.12-8.55h11l1.17-4.69h-16.88zm-14 0h5.33l8-32.1h-8.51l-12.73 23.95h-.09l-.65-23.95h-8.78l-8 32.1h5.36l6.67-26.76h.09l1 26.76h4.24l14.71-26.76h.1zm-51 0h5.88l3.13-12.55h3.31c6.63 0 11-3.73 12.52-9.79s-1-9.76-7.65-9.76h-9.26zm10.13-17.07 2.63-10.52h2.2c3.69 0 4.85 1.75 4 5.25s-2.93 5.27-6.61 5.27zm-38.94 1c-2.89 11.55 2 16.51 8.66 16.51s14-5 16.91-16.51-2-16.51-8.67-16.51-14 5-16.9 16.51m6.07 0c2.2-8.83 6-12 9.71-12s5.92 3.17 3.72 12-6 12-9.71 12-5.92-3.16-3.72-12m-30.72 16.05h16.47l1.17-4.69h-10.58l6.83-27.41h-5.88zm-24.64 0h17.34l1.17-4.69h-11.48l2.36-9.48h10.39l1.17-4.69h-10.39l2.13-8.55h11l1.18-4.69h-16.84zm-21.83 0h6.2l17.8-32.1h-6.06l-12.85 24.75h-.09l-.31-24.75h-6.36zm-32 0h17.33l1.17-4.69h-11.45l2.37-9.48h10.39l1.05-4.67h-10.38l2.11-8.55h11l1.18-4.69h-16.88zm-18.24-27.59h2c6.63 0 8.5 4.5 6.74 11.54s-5.86 11.55-12.49 11.55h-2zm-12.78 27.59h8.37c8.93 0 16.66-5.24 19.37-16.05 2.64-10.62-1.34-16.05-11.37-16.05h-8.36zm-38.81 0h17.34l1.17-4.69h-11.44l2.36-9.48h10.26l1.18-4.69h-10.39l2.14-8.55h11l1.16-4.69h-16.88zm-17.12-18.13 2.36-9.46h2.4c3.3 0 5 .92 4.09 4.6a6.19 6.19 0 0 1 -6.45 4.86zm-10.4 18.13h5.89l3.43-13.79h1.33c2.16 0 3.48.82 3.63 3.36l.57 10.43h6.25l-1.13-12.23c-.26-3-1.48-3.55-2.61-3.73v-.14a9.91 9.91 0 0 0 8.1-7.54c1.47-5.88-1.76-8.46-7.46-8.46h-10zm-11.74 0h6.07l-2.35-32.1h-6.43l-18.75 32.1h5.88l4.22-7.72h11zm-9-12.23 8.14-15h .1l.3 15zm-27.65 12.25h7l14.62-32.1h-5.32l-10.87 24.75h-.09l1.39-24.75h-7.13l-11 24.75h-.1l1.66-24.75h-5.56l-1.51 32.1h6.94l11.62-26.31h.09zm-41.16 0h5.89l6.87-27.41h7.13l1.16-4.69h-20.22l-1.17 4.69h7.17zm-28.68 0h5.88l3.49-14h9.88l1.17-4.7h-9.88l2.18-8.73h10.34l1.17-4.69h-16.23zm-28.93-16.05c-2.89 11.55 2 16.51 8.66 16.51s14-5 16.89-16.51-2-16.51-8.66-16.51-14 5-16.89 16.51m6.06 0c2.2-8.83 6-12 9.71-12s5.92 3.17 3.72 12-6 12-9.71 12-5.93-3.16-3.72-12m-33.82 15.09c1.37 1 3.74 1.42 7 1.42 6.13 0 11.55-3.12 13.18-9.66 1.11-4.51-.18-6.53-3.41-8.64l-3-1.94c-1.54-1-2.93-1.93-2.32-4.31.54-2.22 2.45-3.77 5.39-3.77a12.87 12.87 0 0 1 5.68 1.37l1.51-4.92a18.18 18.18 0 0 0 -6.44-1.15c-5.37 0-10.85 3-12.27 8.74-1 4.14.4 6.67 3.13 8.42l2.57 1.65c2.47 1.57 3.55 2.57 3 4.88a6 6 0 0 1 -6 4.64 10.73 10.73 0 0 1 -6.31-2zm-26.18 1h6.31l-3.45-6.43a24.74 24.74 0 0 0 6.61-11.47h-5.16a17.38 17.38 0 0 1 -3.56 7.31l-3.44-6.56c2.59-1.52 7-4.13 8-8.45.81-3.23-.46-7-6.39-7-6.44 0-9.86 4.33-10.61 7.32-.83 3.31.51 5.14 1.62 7.11-2.31 1-6.87 3.65-8.27 9.26-1.23 4.92 1 9.33 8.2 9.33 4.1 0 6.1-1.42 8.53-3.4zm-3.39-6.29a8.1 8.1 0 0 1 -5.39 2.42c-2.11 0-4.62-1.74-3.75-5.23a8.71 8.71 0 0 1 4.76-5.66zm3.84-19.46c-.67 2.66-3.36 4.46-5.45 5.65-.88-1.33-2.2-3-1.62-5.38a4.63 4.63 0 0 1 4.43-3.49c2 0 3.15 1.15 2.64 3.22m-59.26 24.75c1.37 1 3.74 1.42 7 1.42 6.11 0 11.54-3.12 13.17-9.66 1.12-4.51-.17-6.53-3.41-8.64l-3-1.94c-1.55-1-2.93-1.93-2.33-4.31.54-2.22 2.47-3.77 5.4-3.77a13 13 0 0 1 5.69 1.37l1.5-4.92a18.28 18.28 0 0 0 -6.43-1.15c-5.38 0-10.85 3-12.3 8.74-1 4.14.41 6.67 3.15 8.42l2.58 1.65c2.45 1.57 3.54 2.57 3 4.88a6 6 0 0 1 -6 4.64 10.71 10.71 0 0 1 -6.31-2zm-13.31 1h5.34l8-32.1h-8.51l-12.74 23.95h-.08l-.65-23.95h-8.79l-8 32.1h5.32l6.68-26.76h.09l1 26.76h4.19l14.72-26.76h.1zm-50.18 0h17.34l1.17-4.69h-11.46l2.37-9.48h10.39l1.17-4.69h-10.37l2.13-8.55h11l1.16-4.69h-16.9zm-19.14 0h5.88l6.87-27.45h7.12l1.17-4.69h-20.21l-1.18 4.69h7.18zm-29.72-1c1.37 1 3.74 1.42 7 1.42 6.12 0 11.55-3.12 13.17-9.66 1.12-4.51-.16-6.53-3.41-8.64l-3-1.94c-1.53-1-2.92-1.93-2.32-4.31.55-2.22 2.45-3.77 5.39-3.77a12.92 12.92 0 0 1 5.69 1.37l1.51-4.92a18.24 18.24 0 0 0 -6.44-1.15c-5.37 0-10.86 3-12.29 8.74-1 4.14.4 6.67 3.15 8.42l2.57 1.65c2.47 1.57 3.54 2.57 3 4.88a6 6 0 0 1 -6 4.64 10.71 10.71 0 0 1 -6.31-2zm-20 1h5.88l3.19-12.73 14.29-19.37h-6.34l-9.09 12.84-3.06-12.84h-6.34l4.7 19.2zm-31.65-1c1.38 1 3.75 1.42 7 1.42 6.11 0 11.54-3.12 13.17-9.66 1.12-4.51-.17-6.53-3.42-8.64l-3-1.94c-1.54-1-2.92-1.93-2.33-4.31.56-2.22 2.46-3.77 5.4-3.77a13 13 0 0 1 5.69 1.37l1.5-4.92a18.17 18.17 0 0 0 -6.43-1.15c-5.38 0-10.86 3-12.3 8.74-1 4.14.41 6.67 3.15 8.42l2.57 1.65c2.46 1.57 3.54 2.57 3 4.88a6 6 0 0 1 -6 4.64 10.76 10.76 0 0 1 -6.31-2zm-27.68 1h5.33l8-32.1h-8.51l-12.74 23.95h-.09l-.64-23.95h-8.79l-8 32.1h5.33l6.67-26.76h.09l1 26.76h4.19l14.76-26.8h.09zm-44.56 0h5.89l6.83-27.41h7.13l1.17-4.69h-20.16l-1.18 4.69h7.18zm-14.16 0h6.06l-2.34-32.1h-6.44l-18.76 32.06h5.88l4.23-7.72h11zm-9-12.23 8.15-15h .11l.3 15z" fill="#005daa"/></svg>